<svg xmlns="http://www.w3.org/2000/svg" width="140" height="56.001" viewBox="0 0 140 56.001">
  <g id="marvel_logo" transform="translate(0 0)">
    <path id="Exclusion_1" data-name="Exclusion 1" d="M-66-267H-206v-56H-66v56Zm-59.459-34.541c.422,2.517,5.011,29.809,5.054,30.065l9.95-.031,6.8-42.616v42.616h16.133v-8.456h-7.658v-10.783h7.658v-8.584h-7.658V-309.95h7.657v-8.571h-24l-3.946,28.635-3.905-28.635h-8.654l.969,7.641a14.968,14.968,0,0,0-3.621-4.555,13.194,13.194,0,0,0-8.72-3.086c-.015,0-.8,0-2.27,0l-6.4,0-.033,41.738-6.307-41.738-11.335-.007-6.526,43.247,0-43.24h-10.848l-3.911,24.292-3.81-24.291h-10.85V-271.5h8.545v-22.662l3.887,22.661h4.543l3.832-22.661v22.661H-164.4l1-7.234h6.633l1,7.234,16.173.01h.014v-.01h.02v-15.261l1.983-.287,4.1,15.558h8.365l0-.01h.025l-5.387-18.235a13.428,13.428,0,0,0,3.827-4.914,12.2,12.2,0,0,0,1.193-6.886Zm39.413-16.988v47.016h15.738v-8.456h-7.265v-38.561ZM-157.614-286.2H-162.4l2.345-20.1,2.436,20.1ZM-139.567-295h0v-15.123h.058a5.442,5.442,0,0,1,3.1,1.031c1.691,1.239,2.548,3.41,2.548,6.45,0,3.375-1.379,6.055-3.69,7.169A4.594,4.594,0,0,1-139.567-295Z" transform="translate(206 323)" fill="#fff"/>
  </g>
</svg>
