<svg xmlns="http://www.w3.org/2000/svg" xmlns:xlink="http://www.w3.org/1999/xlink" width="165" height="48" viewBox="0 0 165 48">
  <defs>
    <clipPath id="clip-path">
      <rect id="Rectangle_1" data-name="Rectangle 1" width="165" height="48" fill="#fff"/>
    </clipPath>
  </defs>
  <g id="national_geographic_logo" clip-path="url(#clip-path)">
    <path id="Path_3" data-name="Path 3" d="M0,48V0H33.832V48Zm28.937-4.835V4.835H4.872v38.33Z" fill="#fff"/>
    <path id="Path_4" data-name="Path 4" d="M56.313,21.53H54.219c-2.743-3.84-5.475-7.657-8.195-11.976V21.53H43.66V4.823h2.093c2.744,3.817,5.475,7.61,8.171,11.906V4.823h2.365V21.53Z" fill="#fff"/>
    <path id="Path_5" data-name="Path 5" d="M61.8,14.927c.674-2.189,1.348-4.226,1.951-6.8.674,2.576,1.277,4.613,1.9,6.8ZM62.911,4.835,57.069,21.53h2.507l1.466-4.554h5.085l1.324,4.554H70.68L65.347,4.823H62.982Z" fill="#fff"/>
    <path id="Path_6" data-name="Path 6" d="M73.424,21.53V7.071H68.989V4.835H80.72V7.071H76.286V21.53H73.424Z" fill="#fff"/>
    <path id="Path_7" data-name="Path 7" d="M81.7,21.53V4.823h2.874V21.53Z" fill="#fff"/>
    <path id="Path_8" data-name="Path 8" d="M93.48,19.4c-3.015,0-4.08-3.29-4.08-6.486S90.582,6.9,93.48,6.9s4.068,2.939,4.068,6.018S96.5,19.4,93.48,19.4Zm0,2.341c4.411,0,7.154-3.887,7.154-8.874,0-4.683-3.039-8.406-7.154-8.406s-7.154,3.723-7.154,8.406c0,5.057,2.744,8.956,7.154,8.956Z" fill="#fff"/>
    <path id="Path_9" data-name="Path 9" d="M115.014,21.53h-2.093c-2.744-3.84-5.475-7.657-8.195-11.976V21.53h-2.365V4.823h2.093c2.743,3.817,5.475,7.61,8.171,11.906V4.823h2.365V21.53Z" fill="#fff"/>
    <path id="Path_10" data-name="Path 10" d="M120.536,14.927c.674-2.189,1.349-4.226,1.951-6.8.674,2.576,1.277,4.613,1.9,6.8h-3.856Zm1.112-10.092-5.83,16.706h2.507l1.466-4.554h5.085l1.325,4.554h3.228L124.048,4.835h-2.4Z" fill="#fff"/>
    <path id="Path_11" data-name="Path 11" d="M130.268,4.823h2.874V19.282h5.712V21.53h-8.586Z" fill="#fff"/>
    <path id="Path_12" data-name="Path 12" d="M54.527,35.508v6.9a13.392,13.392,0,0,1-4.8,1.03c-4.967,0-8.1-3.817-8.1-8.733,0-4.554,3.134-8.546,8.2-8.546a7.262,7.262,0,0,1,4.092,1.288l-.934,1.979a6.313,6.313,0,0,0-3.086-.878c-3.087,0-5.18,2.412-5.18,6.2s2.365,6.3,4.9,6.3a4.291,4.291,0,0,0,2.022-.41V35.508Z" fill="#fff"/>
    <path id="Path_13" data-name="Path 13" d="M64.874,28.683H60.049V33.26h4.73v2.248h-4.73v5.4h5.688v2.248H57.152V26.424h7.71v2.248Z" fill="#fff"/>
    <path id="Path_14" data-name="Path 14" d="M73.79,41.046c-3.015,0-4.068-3.29-4.068-6.486s1.182-6.018,4.068-6.018,4.08,2.939,4.08,6.018S76.806,41.046,73.79,41.046Zm0,2.341c4.411,0,7.154-3.887,7.154-8.874,0-4.683-3.039-8.406-7.154-8.406s-7.154,3.723-7.154,8.406c0,5.034,2.743,8.921,7.154,8.921v-.047Z" fill="#fff"/>
    <path id="Path_15" data-name="Path 15" d="M94.84,35.508v6.9a13.394,13.394,0,0,1-4.8,1.03c-4.967,0-8.1-3.817-8.1-8.733,0-4.554,3.134-8.546,8.2-8.546a7.262,7.262,0,0,1,4.091,1.288l-.934,1.979a6.316,6.316,0,0,0-3.087-.878c-3.086,0-5.18,2.412-5.18,6.2s2.365,6.3,4.9,6.3a4.292,4.292,0,0,0,2.022-.41V35.508Z" fill="#fff"/>
    <path id="Path_16" data-name="Path 16" d="M100.386,28.683h1.277a2.428,2.428,0,0,1,2.673,2.693,2.945,2.945,0,0,1-2.558,3.3c-.062.008-.124.014-.186.018l-1.183.07V28.671Zm7.332,14.459-3.347-6.919a5.609,5.609,0,0,0,2.921-4.964c0-3.243-2-4.823-5.227-4.823H97.56V43.142h2.9v-6.3h1.3l2.719,6.3h3.241Z" fill="#fff"/>
    <path id="Path_17" data-name="Path 17" d="M112.483,36.539c.674-2.189,1.348-4.226,1.952-6.8.674,2.576,1.277,4.6,1.9,6.8h-3.855ZM113.6,26.424l-5.83,16.706h2.519l1.466-4.554h5.085l1.324,4.554h3.229l-5.381-16.706H113.6Z" fill="#fff"/>
    <path id="Path_18" data-name="Path 18" d="M126.839,26.424h-4.5V43.13h2.9V36.843h1.3a5.484,5.484,0,0,0,5.547-5.419c0-.055,0-.111,0-.166C132.031,28.015,130.032,26.424,126.839,26.424Zm-.414,8.253-1.182.07V28.671h1.3a2.441,2.441,0,0,1,2.655,2.2,2.4,2.4,0,0,1-.006.494,2.957,2.957,0,0,1-2.56,3.315q-.122.016-.243.022Z" fill="#fff"/>
    <path id="Path_19" data-name="Path 19" d="M145.441,43.142h-2.9V35.1h-6.007v8.043h-2.873V26.424h2.873v6.415h6.007V26.47h2.9V43.142Z" fill="#fff"/>
    <path id="Path_20" data-name="Path 20" d="M148.208,43.142V26.424h2.873V43.13h-2.873Z" fill="#fff"/>
    <path id="Path_21" data-name="Path 21" d="M164.089,29.467a6.113,6.113,0,0,0-2.968-.925c-2.945,0-5.085,2.411-5.085,6.2s2.365,6.3,5.156,6.3a5.508,5.508,0,0,0,2.9-.831l.792,2.072a7.411,7.411,0,0,1-3.808,1.171c-4.967,0-8.1-3.817-8.1-8.734,0-4.554,3.11-8.546,8.147-8.546A7.14,7.14,0,0,1,165,27.465Z" fill="#fff"/>
  </g>
</svg>
