<svg xmlns="http://www.w3.org/2000/svg" xmlns:xlink="http://www.w3.org/1999/xlink" width="140" height="61" viewBox="0 0 140 61">
    <defs>
        <path id="a" d="M.38.438h85.27V54H.38z"/>
    </defs>
    <g fill="none" fill-rule="evenodd">
        <path fill="#FFF" d="M117.446 26.812c-2.202.45-3.995.28-6.294.492-.896.1-1.435 2.702.192 2.5 0 0 6.079-1.231 4.143 2.895-.472.794-4.347.39-6.47.755-.545.149-1.686 3.573-.251 3.611 1.435.038 7.334-2.57 7.763.73.117 2.645-7.806 6.776-11.39 4.588-1.623-1.194-2.058-2.752-2.129-4.557-.17-2.183 1.868-3.64 1.054-5.912-.273-.645.101-1.425.715-1.6.993-.227 1.616-1.879 1.963-3.035-5.348-3.064-1.967-3.727-1.967-3.727 3.312-.442 9.367-2.444 11.712-1.087 3.992 2.528 2.37 4.108.96 4.347"/>
        <g transform="translate(53 5)">
            <mask id="b" fill="#fff">
                <use xlink:href="#a"/>
            </mask>
            <path fill="#FFF" d="M14.18 5.259c1.311-.361 4.453-.07 1.993 3.01-2.462 3.082-6.907 3.25-7.726 3.19-.818-.059-.935-.175-.817-.757.117-.582 3.901-4.714 6.55-5.443zm-6.892-.217c.398-.033-3.34 4.368-3.564 3.76C3.1 7.107 6.236 5.13 7.288 5.042zm12.687.273c-.165-1.01-.893-2.37-1.856-2.462-1.685.001-2.62-1.77-4.184-2.14-7.181-1.64-11.748 4.55-12.129 5.03C.31 7.48-.08 9.759.976 11.24c1.024 1.102.696 2.4 1.155 3.713.33.712 1.504 2.362 2.884-.05 2.132.084 4.219.538 6.294-.2 2.162-.774 9.041-4.196 8.666-9.388zM80.892 29.66c-1 1.054-1.09 1.227-2.293 1.953-1.133.46-2.235 1.219-3.504 1.005-1.053-.275.978-1.916 1.411-2.913 1.62-2.126 2.87-4.558 5.154-6.26.564-.137.7.536.88.839.247 1.678-.28 3.421-1.121 4.736l-.527.64zm3.31-8.864c-.699-1.147-2.331-1.892-3.73-1.288-3.675 2.007-6.246 5.528-9.516 8.885-3.27 3.358.528-4.698 1.981-7.146 3.024-5.093-.519-3.92-1.32-2.563-3.2 4.32-7.59 9.796-4.382 15.553-1.858 4.273-5.193 15.003-3.085 17.892.874 1.137 3.256 2.938 3.528 1.047.829-7.007 4.413-14.997 4.413-14.997 7.6.094 17.258-7.434 12.11-17.383z" mask="url(#b)"/>
        </g>
        <path fill="#FFF" d="M99.644 38.005c-.95.912-2.054 1.586-3.8.03-3.061-2.432-5.647-11.56-6.282-7.533-.469 3.048.328 6.092-.867 8.834-.377.695-3.276 2.09-3.694-3.72-.04-4.203 1.8-15.145 4.825-12.687 3.496 2.733 4.076 5.768 6.756 8.92 2.746 3.701-.695-8.089-1.557-12.295-.37-4.128 4.348.907 5.296 4.228 1.523 4.075 3.14 10.664-.677 14.223"/>
        <path fill="#FFF" d="M81.026 24.97c-14.437.774-12.535 2.3-9.567 2.427 18.062-.225 13.235 8.92 11.619 10.188-7.861 5.565-16.59.153-16.82-2.687-.312-5.22 7.494-4.082 10.44-3.374 3.975 1.146 3.27 2.443-.37 2.977-2.674.34-9.034-3.084-8.069.34.651 1.928 16.383.42 12.085-2.962-2.14-1.639-11.025-1.443-13.964-2.475-2.911-1.439-.827-5.66 2.633-6.84 4.624-1.557 10.344-2.328 15.005-.506 1.963.724.99 2.699-2.992 2.912"/>
        <g fill="#FFF">
            <path d="M62.35 40.999c-1.063.567-4.243 1.83-4.14-4.094.077-4.528-.13-9.57 1.13-14.103.212-.702 2.41-1.263 2.991 1.918.3 5.16 1.084 15.712.02 16.279M20.573 37.36c.116-3.274.224-10.23.224-10.23-3.592-.113-12.51 1.244-11.066 3.468 1.552 2.01 6.529 6.294 10.842 6.762zM9.276 31.597c-5.284-7.027 12.156-9.705 12.156-9.705.549-2.966.455-8.067 1.82-9.564.304-.253.903-.24 1.16.025 2.609 2.206 2.18 6.11 2.49 8.955 1.988.112 3.677.204 6.029.386 4.332.336 10.334 1.937 10.897 6.542-.039 5.053-6.529 4.366-6.243 3.203.324-1.105 3.273-2.064 1.427-3.085-1.768-1.088-12.209-2.457-12.252-1.598-.075 1.52-.076 7.64.141 11.39.014.944 17.354 3.24 22.949-4.96C57.21 21.321 34.81 9.066 24.032 5.743 17.859 3.842 10.387 3.2 3.7 4.242c-1.922.38 2.234 1.31.605 2.113-1.467.707-3.187.477-4.017-.303-.829-.893.23-2.994 1.898-4 10.837-4.968 26.04.186 34.419 3.962 8.528 3.816 18.279 12.08 20.206 21.085.628 5.217-2.085 9.745-6.492 12.691C43.748 44.1 34.907 44.355 27.074 43c-1.05 3.462-3.768 2.85-4.536 1.98-1.066-1.075-1.234-2.726-1.453-4.07-.074-.458-.44-.562-.947-.876-2.704-1.677-8.411-5.105-10.862-8.437z"/>
        </g>
    </g>
</svg>
