<?xml version="1.0" encoding="utf-8"?>
<!-- Generator: Adobe Illustrator 23.0.3, SVG Export Plug-In . SVG Version: 6.00 Build 0)  -->
<svg version="1.1" id="Layer_1" xmlns="http://www.w3.org/2000/svg" xmlns:xlink="http://www.w3.org/1999/xlink" x="0px" y="0px"
	 viewBox="0 0 679 277" style="enable-background:new 0 0 679 277;" xml:space="preserve">
<style type="text/css">
	.st0{fill:#FFFFFF;}
</style>
<g id="White_Marvel_Block">
	<path class="st0" d="M350.22,101.68c0,18.44-8.18,30.08-17.78,34.75c-3.16,1.52-6.46,2.28-9.68,2.29V65.45c0.05,0,0.12,0,0.2,0
		C326.19,65.42,350.22,66.4,350.22,101.68z M212.83,181.41h23.03L224.13,84L212.83,181.41z M677.06,3.05v271.34H2.86V3.05H677.06z
		 M573.39,24.75H457.83L438.8,163.52L420.01,24.75h-41.68l4.67,37.04c-4.81-9.49-21.87-37.04-59.42-37.04
		c-0.25-0.02-41.73,0-41.73,0L281.68,227L251.3,24.75l-54.58-0.02l-31.43,209.55l0.01-209.53h-52.23L94.23,142.46L75.89,24.75H23.63
		v227.82h41.16V142.76l18.72,109.81h21.87l18.46-109.81v109.81h79.34l4.8-35.04h31.94l4.8,35.04l77.89,0.04h0.06v-0.04h0.04h0.06
		v-73.94l9.55-1.39l19.76,75.38h0.05h40.18h0.06l-0.01-0.04h0.06h0.05l-25.94-88.34c13.14-9.74,27.98-34.43,24.04-58.05
		c0,0,0,0,0-0.01c0.04,0.3,24.48,146.55,24.48,146.55l47.92-0.14l32.75-206.49v206.49h77.68V211.6h-36.88v-52.24h36.88v-41.6h-36.88
		V66.3h36.88V24.75z M656.3,211.56h-34.98V24.72h-40.81v227.82h75.79V211.56z"/>
</g>
</svg>
