<svg width="200px" height="59px" viewBox="0 0 200 59" version="1.1" xmlns="http://www.w3.org/2000/svg" xmlns:xlink="http://www.w3.org/1999/xlink">
    <g id="Page-1" stroke="none" stroke-width="1" fill="none" fill-rule="evenodd">
        <g id="logos-/-natgeo" fill="#FFFFFF">
            <g id="Natgeologo">
                <path d="M0,58.7256743 L0,0.0155844156 L40.968032,0.0155844156 L40.968032,58.7256743 L0,58.7256743 Z M35.0397602,52.8113886 L35.0397602,5.92947053 L5.8993007,5.92947053 L5.8993007,52.8113886 L35.0397602,52.8113886 Z" id="Shape" fill-rule="nonzero"></path>
                <g id="Group" transform="translate(52.747253, 5.394605)">
                    <path d="M15.4421578,20.9544456 L12.9074925,20.9544456 C9.58561439,16.2575425 6.27752248,11.5894106 2.98421578,6.30569431 L2.98421578,6.30569431 L2.98421578,20.9544456 L0.120679321,20.9544456 L0.120679321,0.52047952 L2.65494505,0.52047952 C5.97722278,5.18861139 9.28491508,9.82817183 12.5496503,15.0835165 L12.5496503,15.0835165 L12.5496503,0.52047952 L15.4135864,0.52047952 L15.4135864,20.9544456 L15.4421578,20.9544456 Z" id="Path"></path>
                    <path d="M22.0865135,12.8783217 C22.9026973,10.2005994 23.7188811,7.70889111 24.4491508,4.55884116 L24.4491508,4.55884116 C25.2653347,7.70909091 25.9958042,10.2005994 26.7546454,12.8783217 L22.0865135,12.8783217 Z M23.4323676,0.534865135 L16.3584416,20.9544456 L19.3944056,20.9544456 L21.1698302,15.3842158 L27.3272727,15.3842158 L28.9308691,20.9544456 L32.8401598,20.9544456 L26.382018,0.52047952 L23.5184815,0.52047952 L23.4323676,0.534865135 Z" id="Shape" fill-rule="nonzero"></path>
                    <polygon id="Path" points="36.1624376 20.9544456 36.1624376 3.26993007 30.7924076 3.26993007 30.7924076 0.534865135 44.9976024 0.534865135 44.9976024 3.26993007 39.627972 3.26993007 39.627972 20.9544456 36.1196803 20.9544456 36.1624376 20.9544456"></polygon>
                    <polygon id="Path" points="46.1862138 20.9544456 46.1862138 0.52047952 49.6657343 0.52047952 49.6657343 20.9544456"></polygon>
                    <path d="M60.4483516,18.3482517 C56.797003,18.3482517 55.5080919,14.3244755 55.5080919,10.4151848 C55.5080919,6.50589411 56.9400599,3.05494505 60.4483516,3.05494505 C63.9568432,3.05494505 65.3744256,6.64935065 65.3744256,10.4151848 C65.3744256,14.1814186 64.0999001,18.3482517 60.4483516,18.3482517 Z M60.4483516,21.2121878 C65.7894106,21.2121878 69.1114885,16.4583417 69.1114885,10.358042 C69.1114885,4.63036963 65.4313686,0.0767232767 60.4483516,0.0767232767 C55.4653347,0.0767232767 51.785015,4.63036963 51.785015,10.358042 C51.785015,16.5438561 55.1074925,21.3124875 60.4483516,21.3124875 L60.4483516,21.2121878 Z" id="Shape" fill-rule="nonzero"></path>
                    <path d="M86.5242757,20.9544456 L83.9896104,20.9544456 C80.6677323,16.2575425 77.3596404,11.5894106 74.0663337,6.30569431 L74.0663337,6.30569431 L74.0663337,20.9544456 L71.2025974,20.9544456 L71.2025974,0.52047952 L73.7370629,0.52047952 C77.0591409,5.18861139 80.367033,9.82817183 83.6315684,15.0835165 L83.6315684,15.0835165 L83.6315684,0.52047952 L86.4955045,0.52047952 L86.4955045,20.9544456 L86.5242757,20.9544456 Z" id="Path"></path>
                    <path d="M93.2113886,12.8783217 C94.0277722,10.2005994 94.843956,7.70889111 95.574026,4.55884116 L95.574026,4.55884116 C96.3902098,7.70909091 97.1202797,10.2005994 97.8797203,12.8783217 L93.154046,12.8783217 L93.2113886,12.8783217 Z M94.5574426,0.534865135 L87.4979021,20.9688312 L90.5336663,20.9688312 L92.3092907,15.3984016 L98.4667333,15.3984016 L100.07033,20.9688312 L103.97962,20.9688312 L97.4641359,0.534865135 L94.6001998,0.534865135 L94.5574426,0.534865135 Z" id="Shape" fill-rule="nonzero"></path>
                    <polygon id="Path" points="104.996204 0.52047952 108.476124 0.52047952 108.476124 18.204995 115.392408 18.204995 115.392408 20.9544456 104.996204 20.9544456"></polygon>
                </g>
                <g id="Group" transform="translate(50.349650, 31.768232)">
                    <path d="M15.6773227,11.6785215 L15.6773227,20.1124875 C13.8347652,20.8905095 11.8633367,21.3176823 9.86393606,21.3726274 C3.84955045,21.3726274 0.0545454545,16.7044955 0.0545454545,10.6905095 C0.0545454545,5.11988012 3.84955045,0.237362637 9.97822178,0.237362637 C11.7514486,0.247152847 13.4793207,0.796603397 14.9328671,1.81238761 L13.8015984,4.23236763 C12.6701299,3.55584416 11.3822178,3.18601399 10.0645355,3.15864136 C6.32687313,3.15864136 3.79220779,6.10849151 3.79220779,10.7478521 C3.79220779,15.3872128 6.65594406,18.4517483 9.72067932,18.4517483 C10.5656344,18.4883117 11.4065934,18.3158841 12.169031,17.9504496 L12.169031,11.6785215 L15.6773227,11.6785215 L15.6773227,11.6785215 Z" id="Path"></path>
                    <polygon id="Path" points="28.2071928 3.32987013 22.3648352 3.32987013 22.3648352 8.92907093 28.0925075 8.92907093 28.0925075 11.6785215 22.3648352 11.6785215 22.3648352 18.2797203 29.2525475 18.2797203 29.2525475 21.028971 18.8567433 21.028971 18.8567433 0.566633367 28.1932068 0.566633367 28.1932068 3.31588412"></polygon>
                    <path d="M39.003996,18.4515485 C35.3526474,18.4515485 34.0781219,14.4275724 34.0781219,10.5186813 C34.0781219,6.60939061 35.5100899,3.15824176 39.003996,3.15824176 C42.4981019,3.15824176 43.9444555,6.75244755 43.9444555,10.5186813 C43.9442557,14.2845155 42.6555445,18.4515485 39.003996,18.4515485 Z M39.003996,21.3154845 C44.3450549,21.3154845 47.6673327,16.5612388 47.6673327,10.4613387 C47.6673327,4.73366633 43.9872128,0.18001998 39.003996,0.18001998 C34.0211788,0.18001998 30.3410589,4.73366633 30.3410589,10.4613387 C30.3410589,16.6185814 33.6629371,21.3726274 39.003996,21.3726274 L39.003996,21.3154845 L39.003996,21.3154845 Z" id="Shape" fill-rule="nonzero"></path>
                    <path d="M64.4927073,11.6785215 L64.4927073,20.1124875 C62.6501499,20.8905095 60.6783217,21.3176823 58.6789211,21.3726274 C52.6647353,21.3726274 48.8699301,16.7044955 48.8699301,10.6905095 C48.8699301,5.11988012 52.6647353,0.237362637 58.7936064,0.237362637 C60.5666334,0.247152847 62.2945055,0.796603397 63.7480519,1.81238761 L62.616983,4.23236763 C61.4853147,3.55584416 60.1972028,3.18601399 58.8793207,3.15864136 C55.1420579,3.15864136 52.6073926,6.10849151 52.6073926,10.7478521 C52.6073926,15.3872128 55.4713287,18.4517483 58.5356643,18.4517483 C59.3806194,18.4883117 60.2215784,18.3158841 60.9844156,17.9504496 L60.9844156,11.6785215 L64.4927073,11.6785215 L64.4927073,11.6785215 Z" id="Path"></path>
                    <path d="M71.2083916,3.32987013 L72.755045,3.32987013 C74.384016,3.16863137 75.8353646,4.35844156 75.9968032,5.98781219 C76.0177822,6.1994006 76.015984,6.41258741 75.9914086,6.62357642 C76.2491508,8.59200799 74.8621379,10.3964036 72.8939061,10.6539461 C72.8193806,10.6635365 72.7444555,10.6711289 72.6691309,10.6761239 L71.2371628,10.762038 L71.2371628,3.31568432 L71.2083916,3.32987013 Z M80.0867133,21.014985 L76.0341658,12.552048 C78.2367632,11.3292707 79.594006,8.9998002 79.5712288,6.48051948 C79.5712288,2.51388611 77.151049,0.581018981 73.241958,0.581018981 L67.7862138,0.581018981 L67.7862138,21.014985 L71.2945055,21.014985 L71.2945055,13.3106893 L72.8697303,13.3106893 L76.1628372,21.014985 L80.1584416,21.014985 L80.0867133,21.014985 Z" id="Shape" fill-rule="nonzero"></path>
                    <path d="M85.8575425,12.9386613 C86.6737263,10.2609391 87.4899101,7.76923077 88.2203796,4.61878122 L88.2203796,4.61878122 C89.0365634,7.76923077 89.7666334,10.2463536 90.5254745,12.9386613 L85.8003996,12.9386613 L85.8575425,12.9386613 Z M87.2033966,0.566633367 L80.1440559,21.0003996 L83.1942058,21.0003996 L84.9698302,15.4297702 L91.1268731,15.4297702 L92.7306693,21.0003996 L96.63996,21.0003996 L90.1246753,0.566633367 L87.2609391,0.566633367 L87.2033966,0.566633367 L87.2033966,0.566633367 Z" id="Shape" fill-rule="nonzero"></path>
                    <path d="M103.241359,0.566633367 L97.7856144,0.566633367 L97.7856144,21.0003996 L101.293906,21.0003996 L101.293906,13.3106893 L102.869331,13.3106893 C106.554446,13.3354645 109.562038,10.368032 109.586613,6.68271728 C109.587413,6.61518482 109.586613,6.54765235 109.585015,6.48031968 C109.527672,2.51368631 107.107493,0.566633367 103.241359,0.566633367 Z M102.74006,10.6615385 L101.308092,10.7474525 L101.308092,3.31588412 L102.883317,3.31588412 C104.513886,3.17062937 105.953646,4.37462537 106.099101,6.004995 C106.117083,6.20639361 106.114086,6.40879121 106.090909,6.60919081 C106.354645,8.58481518 104.967033,10.3998002 102.991409,10.6633367 C102.893906,10.6763237 102.795804,10.6853147 102.697303,10.6905095 L102.74006,10.6615385 Z" id="Shape" fill-rule="nonzero"></path>
                    <polygon id="Path" points="125.765834 21.014985 122.257542 21.014985 122.257542 11.1774226 114.983217 11.1774226 114.983217 21.014985 111.503696 21.014985 111.503696 0.566633367 114.983217 0.566633367 114.983217 8.41338661 122.257542 8.41338661 122.257542 0.623576424 125.765834 0.623576424 125.765834 21.0003996"></polygon>
                    <polygon id="Path" points="129.116883 21.014985 129.116883 0.566633367 132.596404 0.566633367 132.596404 21.0003996 129.116883 21.0003996"></polygon>
                    <path d="M148.347852,4.28971029 C147.268332,3.60699301 146.029371,3.21718282 144.753646,3.15864136 C141.187812,3.15864136 138.596204,6.10809191 138.596204,10.7474525 C138.596204,15.3868132 141.46034,18.4515485 144.83976,18.4515485 C146.081319,18.4483516 147.297103,18.0963037 148.348052,17.434965 L149.307493,19.9696304 C147.931469,20.8623377 146.336264,21.3576424 144.696703,21.4013986 C138.682318,21.4013986 134.887912,16.7332667 134.887912,10.7188811 C134.887912,5.14885115 138.653746,0.265934066 144.753846,0.265934066 C146.43996,0.318281718 148.073526,0.866133866 149.450749,1.84115884 L148.347852,4.28971029 Z" id="Path"></path>
                </g>
            </g>
        </g>
    </g>
</svg>
