<svg xmlns="http://www.w3.org/2000/svg" xmlns:xlink="http://www.w3.org/1999/xlink" width="188" height="37" viewBox="0 0 188 37">
    <defs>
        <path id="a" d="M0 .185h19.43v23.599H0z"/>
        <path id="c" d="M.232.185h24.604v24.251H.232z"/>
        <path id="e" d="M.016.185h28.04v23.521H.017z"/>
    </defs>
    <g fill="none" fill-rule="evenodd">
        <g transform="translate(1 6.212)">
            <mask id="b" fill="#fff">
                <use xlink:href="#a"/>
            </mask>
            <path fill="#FFF" d="M.006 23.669c.028-.552.092-.578 1.979-.805l1.8-.218.079-.435c.091-.514.086-10.6-.008-16.637l-.067-4.237-.494-.145c-.272-.08-1.082-.186-1.799-.237C.166.861.004.798 0 .375-.002.197.31.185 5.036.185c7.515 0 9.673.237 11.718 1.286 1.506.772 2.537 2.123 2.662 3.489.114 1.248-.437 3.083-1.3 4.323-1.239 1.783-3.858 3.436-6.526 4.118-1.562.4-1.813.426-1.811.195.004-.547.12-.653 1.157-1.059 1.295-.508 2.153-1.054 2.834-1.805 1.115-1.228 1.548-2.566 1.479-4.566-.04-1.132-.077-1.324-.393-1.992-.863-1.826-2.698-2.794-5.629-2.97l-1.183-.071-.095.478c-.107.54-.09 17.324.02 19.53.067 1.342.086 1.434.308 1.495.13.036 1.077.141 2.105.234 1.027.094 1.93.19 2.005.214.075.024.137.168.137.32v.275H7.597c-2.71 0-5.528.032-6.263.071-1.11.06-1.334.045-1.328-.081" mask="url(#b)"/>
        </g>
        <path fill="#FFF" d="M41.796 29.75c.001-.134.038-.296.082-.358.044-.063.654-.176 1.355-.25.7-.074 1.511-.193 1.801-.264.527-.129.527-.129.6-.67.155-1.16.036-20.217-.128-20.48-.04-.066-.855-.218-1.81-.339-.956-.12-1.746-.227-1.756-.238a2.303 2.303 0 0 1-.093-.315l-.076-.297h5.072c2.79 0 5.455-.032 5.924-.071l.851-.071-.078.314c-.044.173-.112.347-.153.388-.04.04-.848.166-1.794.28-.946.113-1.757.242-1.802.287-.112.11-.156 15.05-.054 18.381l.082 2.702.544.133c.299.073 1.104.181 1.789.24.685.059 1.26.12 1.276.138.017.016.062.152.099.3l.068.27-5.654.024c-3.11.012-5.766.05-5.9.083-.201.048-.246.014-.245-.186M96.598 30.258c-1.883-1.52-5.238-5.087-9.533-10.136-.468-.55-.896-1.002-.949-1.002-.368 0-4.779 6.664-5.996 9.06l-.34.667 1.064.177c.585.098 1.219.2 1.408.229.323.048.476.215.475.515 0 .094-1.132.13-4.432.139l-4.433.012.07-.229c.113-.376.28-.464 1.132-.597 1.13-.177 1.428-.347 2.375-1.351 1.13-1.2 6.587-7.999 7.743-9.647.074-.105-.109-.394-.665-1.049-.421-.497-1.925-2.438-3.34-4.314-1.416-1.876-2.915-3.8-3.332-4.277-.72-.823-.794-.875-1.465-1.048-.389-.1-.892-.186-1.117-.19-.363-.006-.41-.039-.41-.278 0-.15-.013-.29-.028-.312-.015-.023 2.372-.07 5.305-.104 4.983-.058 5.332-.05 5.33.122-.003.355-.169.432-1.313.609a23.86 23.86 0 0 0-1.452.258l-.301.08.747 1.135c1.486 2.259 4.48 6.376 4.642 6.384.23.01 4.106-5.416 5.01-7.014.33-.582.305-.6-1.114-.847-.988-.171-1.06-.201-1.111-.464-.03-.154-.047-.287-.037-.296.01-.009 1.828-.033 4.04-.054l4.023-.039-.07.325a3.155 3.155 0 0 1-.087.345c-.009.01-.504.118-1.1.239-1.05.212-1.102.237-1.678.792-.68.657-3.583 3.907-5.676 6.355l-1.426 1.667.854 1.086c.848 1.077 1.223 1.591 5.185 7.112 1.688 2.352 4.191 5.757 4.676 6.362.085.106-.116.135-.938.135h-1.047l-.69-.557z"/>
        <g transform="translate(162.147 6.212)">
            <mask id="d" fill="#fff">
                <use xlink:href="#c"/>
            </mask>
            <path fill="#FFF" d="M10.952 11.38c1.514-.299 2.528-.81 3.502-1.763.893-.875 1.28-1.58 1.529-2.787.514-2.495-1.133-4.56-4.27-5.354-1.199-.303-3.383-.508-3.559-.334-.1.1-.142 1.429-.17 5.367l-.036 5.236.962-.075c.53-.041 1.448-.172 2.042-.29m11.532 12.43c-1.835-1.349-5.742-5.202-9.636-9.502l-1.56-1.724-1.58.066c-.868.036-1.618.1-1.666.144-.105.094.034 9.313.143 9.488.106.17.704.285 2.25.437 1.274.124 1.328.14 1.394.397.037.147.053.281.035.297-.018.017-2.641.048-5.83.07l-5.798.038c-.015-.212.005-.39.136-.563.075-.056.894-.186 1.82-.288.942-.103 1.72-.24 1.762-.308.042-.068.112-.538.155-1.045.088-1.029-.037-19.258-.136-19.743-.077-.384-.454-.505-1.832-.586C.301.878.236.862.236.502V.185L4.183.19C15.16.2 17.613.567 19.335 2.453c1.073 1.176 1.184 2.725.32 4.47-.644 1.303-2.342 3.06-3.707 3.836l-.566.321.393.67c.563.956 3.681 5.571 4.967 7.35 1.297 1.795 1.98 2.663 3.191 4.06l.903 1.04-.686.117c-.378.066-.715.12-.75.12-.034 0-.447-.283-.916-.628" mask="url(#d)"/>
        </g>
        <g transform="translate(115.647 6.212)">
            <mask id="f" fill="#fff">
                <use xlink:href="#e"/>
            </mask>
            <path fill="#FFF" d="M16.173 11.496a6.837 6.837 0 0 0-.271-.591c-.157-.3-1.554-4.307-2.643-7.58-.267-.801-.502-1.473-.522-1.493-.13-.13-3.674 9.257-3.674 9.731 0 .05 1.243.106 2.762.123 1.52.017 3.142.043 3.607.056l.846.025-.105-.271zM.066 23.367c.058-.383-.044-.347 1.776-.629l1.259-.195.406-.758c.779-1.45 2.414-5.43 5.742-13.97 1.356-3.48 2.455-6.464 2.401-6.518-.026-.026-.532-.12-1.126-.211C8.872.833 8.954.862 8.954.529V.234l5.21-.035C18.97.168 19.37.18 19.306.344a1.085 1.085 0 0 0-.07.312c0 .087-.44.202-1.26.33-.692.107-1.284.234-1.314.283-.03.048.533 1.736 1.252 3.75 2.62 7.338 4.839 12.972 6.351 16.127l.631 1.314.535.125c.51.119 1.976.326 2.354.334.112.002.196.12.225.315l.047.313-5.75.047a1063.8 1063.8 0 0 1-5.765.04 1.976 1.976 0 0 1 .037-.344l.052-.335 1.495-.182c1.889-.23 2.02-.264 1.92-.488-.124-.28-1.075-2.94-1.746-4.886-.339-.983-.863-2.433-1.166-3.222l-.55-1.435h-.615c-1.704 0-7.292.345-7.405.458-.238.235-1.771 5.708-2.178 7.773a70.737 70.737 0 0 0-.277 1.45c0 .083.524.195 1.75.374 1.236.18 1.258.19 1.293.48l.034.295H5.16c-2.216.001-4.278.032-4.585.068l-.558.066.05-.339z" mask="url(#f)"/>
        </g>
    </g>
</svg>
