<svg xmlns="http://www.w3.org/2000/svg" width="134" height="58" viewBox="0 0 134 58">
    <g fill="#FFF" fill-rule="evenodd">
        <path d="M57.028 46.552h-4.095c-.142-.002-.248-.16-.248-.31 0-.059 2.18-6.95 2.18-6.95.076-.26.085-.267.115-.267h.001c.033 0 .039.006.115.266 0 0 2.18 6.892 2.18 6.95 0 .15-.112.31-.248.31m5.519-15.774a.357.357 0 0 0-.313-.25l-15.033.001a.353.353 0 0 0-.314.247s-8.311 26.93-8.311 26.98c0 .134.11.243.248.243l9.936-.001c.08-.027.139-.101.159-.183l1.155-3.633a.261.261 0 0 1 .227-.156l9.166-.006a.268.268 0 0 1 .227.163l1.182 3.632c.02.082.078.159.159.186l9.777-.002a.241.241 0 0 0 .249-.237c0-.046-8.514-26.984-8.514-26.984M91.36 41.775l-6.038.002s-.16-.046-.16-.227l-.006-3.025c0-.182.16-.227.16-.227h5.54c.642 0 1.946.318 1.946 1.795 0 1.477-1.442 1.682-1.442 1.682m28.957-2.341H134v-8.908h-17.595c-1.647 0-3.96.841-5.288 1.819-1.328.977-3.25 3.203-3.25 6.271s1.877 5.454 1.877 5.454c.961 1.182 3.385 3.649 3.385 3.649a.327.327 0 0 1 .088.22.335.335 0 0 1-.336.334H99.328c-1.65-.006-1.764-.658-1.764-.75 0-.167.206-.272.206-.272.618-.295 1.877-1.272 1.877-1.272 2.68-2.068 3-4.91 3-6.432 0-1.522-.229-4.22-2.976-6.584-2.747-2.363-6.227-2.432-6.227-2.432H74.106s0 27.307.002 27.313c-.002.087.078.156.167.156h10.766v-7.659c0-.136.206 0 .206 0l5.609 5.591c1.992 2 5.288 2.068 5.288 2.068l21.2-.003c3.618 0 5.632-1.954 6.182-2.5.55-.545 2.38-2.59 2.38-5.976s-1.556-5.119-2.22-5.914c-.594-.711-2.959-3.195-3.45-3.707a.263.263 0 0 1-.096-.202c0-.12.068-.23.177-.264M34.036 57.998c.074 0 .125-.053.148-.13 0 0 8.452-27.152 8.452-27.178 0-.075-.046-.154-.117-.161l-10.415-.001c-.055 0-.087.043-.099.097l-2.154 7.063c-.014.059-.044.096-.098.096-.05 0-.096-.05-.103-.096l-2.256-7.07c-.009-.044-.046-.09-.098-.09l-11.504-.001a.101.101 0 0 0-.073.065l-2.025 7.095c-.011.059-.044.096-.098.096a.096.096 0 0 1-.097-.082l-2.144-7.088a.1.1 0 0 0-.085-.087l-11.106.002a.163.163 0 0 0-.164.16c0 .016.004.047.004.047l8.577 27.134c.023.077.074.13.147.13l9.223.001c.055-.005.111-.07.129-.131l3.207-10.098v-.001c.02-.061.044-.096.099-.096.054 0 .085.041.098.094l3.131 10.142c.018.051.067.089.126.089h9.295M25.97 0c-1.67 0-4.012.841-5.357 1.818-1.345.977-3.292 3.204-3.292 6.272 0 3.067 1.901 5.454 1.901 5.454.974 1.182 3.429 3.665 3.429 3.665.054.06.089.136.089.22a.337.337 0 0 1-.341.334L0 17.765v9.709h26.92c3.663 0 5.704-1.955 6.26-2.5.557-.545 2.412-2.59 2.412-5.976s-1.577-5.136-2.249-5.931c-.602-.712-2.997-3.18-3.495-3.693a.261.261 0 0 1-.097-.202c0-.12.07-.231.18-.264h12.965v18.566h9.97V8.954H64.97V0h-39zM112.671 11.249l-6.035.001s-.16-.045-.16-.226l-.007-3.025c0-.182.16-.227.16-.227h5.539c.641 0 1.945.318 1.945 1.795 0 1.477-1.442 1.682-1.442 1.682zm7.965 6.498c-1.648-.008-1.763-.658-1.763-.75 0-.167.206-.272.206-.272.617-.295 1.877-1.273 1.877-1.273 2.677-2.068 2.998-4.908 2.998-6.43 0-1.523-.229-4.221-2.975-6.584C118.232.074 114.754 0 114.754 0h-19.33s0 27.312.002 27.317c-.002.087.078.157.167.157h10.762v-7.659c0-.136.206 0 .206 0l5.607 5.59c1.99 2 5.286 2.068 5.286 2.068H134v-9.726h-13.364zM79.362 16.025h-4.095c-.15-.001-.248-.16-.248-.31 0-.059 2.179-6.95 2.179-6.95.077-.26.1-.267.115-.267h.002c.015 0 .038.007.115.267 0 0 2.18 6.891 2.18 6.95 0 .15-.1.309-.248.31M84.872.242A.342.342 0 0 0 84.56 0L69.525.001a.339.339 0 0 0-.313.239s-8.303 26.939-8.303 26.989c0 .134.111.243.248.243h9.937a.256.256 0 0 0 .158-.185l1.156-3.633a.264.264 0 0 1 .227-.156l9.165.002a.263.263 0 0 1 .227.155l1.183 3.633c.02.081.078.158.159.186l9.776-.002a.241.241 0 0 0 .249-.238c0-.045-8.521-26.992-8.521-26.992"/>
    </g>
</svg>
